<svg xmlns="http://www.w3.org/2000/svg" viewBox="0 0 800 450" role="img" aria-label="Player illustration">
  <defs>
    <linearGradient id="g1" x1="0" x2="1" y1="0" y2="1">
      <stop offset="0%" stop-color="#ffedd5"/>
      <stop offset="100%" stop-color="#fed7aa"/>
    </linearGradient>
    <linearGradient id="g2" x1="0" x2="1" y1="0" y2="1">
      <stop offset="0%" stop-color="#fb923c"/>
      <stop offset="100%" stop-color="#ea580c"/>
    </linearGradient>
  </defs>
  <rect width="800" height="450" fill="url(#g1)"/>
  <circle cx="680" cy="80" r="60" fill="url(#g2)" opacity="0.25"/>
  <circle cx="120" cy="120" r="90" fill="url(#g2)" opacity="0.18"/>
  <g transform="translate(240,120)" fill="#1f2937" opacity="0.9">
    <path d="M140 40c20 0 36 16 36 36s-16 36-36 36-36-16-36-36 16-36 36-36z"/>
    <path d="M72 200l40-64 28-12 20 20 48 12 12 36-40 24-68-8-24 20z" opacity="0.85"/>
    <path d="M248 188l56 10c8 1 14 8 14 16 0 7-5 13-11 15l-71 22-24-30z" opacity="0.75"/>
  </g>
</svg>

